<svg width="128" height="32" viewBox="0 0 128 32" fill="none" xmlns="http://www.w3.org/2000/svg">
<g clip-path="url(#clip0_275_1483)">
<path fill-rule="evenodd" clip-rule="evenodd" d="M30.5 0H1.5C1.10218 0 0.720644 0.158035 0.43934 0.43934C0.158035 0.720644 0 1.10218 0 1.5L0 30.5C0 30.8978 0.158035 31.2794 0.43934 31.5607C0.720644 31.842 1.10218 32 1.5 32H30.5C30.8978 32 31.2794 31.842 31.5607 31.5607C31.842 31.2794 32 30.8978 32 30.5V1.5C32 1.10218 31.842 0.720644 31.5607 0.43934C31.2794 0.158035 30.8978 0 30.5 0ZM29 29H3V3H29V29Z" fill="#172139"/>
<path d="M23 26C24.6569 26 26 24.6569 26 23C26 21.3431 24.6569 20 23 20C21.3431 20 20 21.3431 20 23C20 24.6569 21.3431 26 23 26Z" fill="#172139"/>
<path fill-rule="evenodd" clip-rule="evenodd" d="M12 6.35486V7.63432C11.9996 7.68892 11.9868 7.74272 11.9625 7.79165C11.9383 7.84057 11.9032 7.88334 11.86 7.9167C11.1211 8.48632 10.4243 9.10851 9.77497 9.77842C9.10492 10.4276 8.48248 11.1241 7.91247 11.8625C7.87975 11.9057 7.83739 11.9406 7.78877 11.9644C7.74016 11.9883 7.68663 12.0005 7.63248 12H6.35247C6.25899 12 6.16933 11.9629 6.10322 11.8968C6.03711 11.8307 5.99997 11.7411 5.99997 11.6476V6.35486C5.99931 6.30829 6.00795 6.26205 6.0254 6.21886C6.04285 6.17567 6.06875 6.1364 6.10158 6.10335C6.13441 6.07029 6.17352 6.04413 6.2166 6.02638C6.25968 6.00864 6.30588 5.99967 6.35247 6.00001H11.6475C11.694 6.00001 11.74 6.0092 11.783 6.02707C11.8259 6.04493 11.8649 6.07111 11.8976 6.10409C11.9304 6.13708 11.9563 6.17621 11.9739 6.21925C11.9914 6.26229 12.0003 6.30838 12 6.35486Z" fill="#172139"/>
<path d="M26 6.39001V11.6025C25.9994 11.7069 25.958 11.8069 25.8847 11.8811C25.8113 11.9554 25.7119 11.9981 25.6075 12C22.4075 12.1275 19.065 13.925 16.495 16.5C13.925 19.075 12.125 22.4075 12 25.61C11.9968 25.7142 11.9533 25.813 11.8787 25.8857C11.8041 25.9584 11.7042 25.9994 11.6 26H6.38753C6.33634 26.0004 6.28559 25.9905 6.23827 25.971C6.19094 25.9515 6.14797 25.9227 6.11189 25.8864C6.07581 25.8501 6.04733 25.8069 6.02812 25.7595C6.00892 25.712 5.99937 25.6612 6.00003 25.61C6.12753 20.75 8.59253 15.9025 12.25 12.25C15.9075 8.59751 20.75 6.13001 25.61 6.00001C25.6615 5.99899 25.7127 6.00838 25.7605 6.02762C25.8083 6.04686 25.8517 6.07555 25.8881 6.11197C25.9245 6.14839 25.9532 6.19179 25.9724 6.23957C25.9917 6.28735 26.0011 6.33852 26 6.39001Z" fill="#172139"/>
<path d="M78 21H128V24H78V21Z" fill="#172139"/>
<path d="M44 21H59V24H44V21Z" fill="#172139"/>
<path d="M128 15.0149C127.927 10.1251 120.66 11.6068 120.66 9.51798C120.66 8.88333 121.188 8.51854 122.16 8.51854C123.315 8.51854 124.012 9.10571 124.132 9.99771H127.935C127.662 7.40166 125.75 5.5202 122.272 5.5202C118.757 5.5202 116.808 7.35418 116.808 9.58794C116.808 14.4053 124.125 12.8786 124.125 14.9924C124.125 15.5796 123.572 16.0519 122.512 16.0519C121.38 16.0519 120.54 15.4397 120.442 14.5227H116.375C116.567 17.0613 118.975 19.0202 122.56 19.0202C125.93 19.0127 128 17.2962 128 15.0149Z" fill="#172139"/>
<path d="M104.625 7.2725V0.0625H100.5V19H104.625V16.8444C105.062 17.5326 105.669 18.0979 106.388 18.4862C107.107 18.8745 107.914 19.0728 108.732 19.0621C112.02 19.0621 114.75 16.1905 114.75 11.9938C114.75 7.79709 112.045 5.19652 108.732 5.19652C106.812 5.19652 105.37 6.07912 104.625 7.2725ZM110.46 12.0236C110.46 14.1469 109.067 15.3402 107.507 15.3402C105.947 15.3402 104.58 14.1717 104.58 12.046C104.58 9.92031 105.972 8.63743 107.5 8.63743C109.028 8.63743 110.46 9.89793 110.46 12.0236Z" fill="#172139"/>
<path d="M83.75 12.2333C83.75 16.4509 86.365 19.0612 89.63 19.0612C91.63 19.0612 93.13 18.2227 93.88 17.0498V19H98V5.5H93.875V7.46677C93.155 6.29385 91.645 5.38297 89.655 5.38297C86.365 5.38297 83.75 8.0158 83.75 12.2333ZM93.7825 12.2583C93.7825 14.3895 92.415 15.5649 90.855 15.5649C89.295 15.5649 87.925 14.3671 87.925 12.2333C87.925 10.0996 89.3175 8.83435 90.855 8.83435C92.3925 8.83435 93.7825 10.1271 93.7825 12.2583Z" fill="#172139"/>
<path d="M78 19H82V0H78V19Z" fill="#172139"/>
<path d="M61 11.5322C61 15.7658 63.593 18.0493 66.8535 18.0493C68.8039 18.0493 70.2992 17.1094 71.0368 15.9313V17.3274C71.0368 19.5834 69.7316 20.408 68.1863 20.408C66.781 20.408 65.7233 19.7463 65.4608 18.7361H61.3726C61.7276 21.9371 64.4256 24 68.3738 24C72.9646 24 75 21.4182 75 17.8313V5.43865H71.0368V7.09301C70.3242 5.88984 68.8039 5 66.8535 5C63.593 5 61 7.29604 61 11.5322ZM70.9443 11.9809C70.9443 14.1215 69.589 15.3397 68.0413 15.3397C66.4935 15.3397 65.1407 14.0864 65.1407 11.9558C65.1407 9.8252 66.5185 8.58443 68.0413 8.58443C69.564 8.58443 70.9443 9.83773 70.9443 11.9809Z" fill="#172139"/>
<path d="M59 1.99646C59 2.52596 58.7893 3.03377 58.4142 3.40818C58.0391 3.78259 57.5304 3.99293 57 3.99293C56.4696 3.99293 55.9609 3.78259 55.5858 3.40818C55.2107 3.03377 55 2.52596 55 1.99646C55 1.46697 55.2107 0.959161 55.5858 0.584751C55.9609 0.210341 56.4696 0 57 0C57.5304 0 58.0391 0.210341 58.4142 0.584751C58.7893 0.959161 59 1.46697 59 1.99646Z" fill="#172139"/>
<path d="M55 19H59V5.5H55V19Z" fill="#172139"/>
<path d="M48.1212 12.82C48.1212 10.515 49.4091 9.845 51.3821 9.845H52.5V5.5C50.6455 5.5 49.2133 6.46 48.25 7.875V5.5H44V19H48.1212V12.82Z" fill="#172139"/>
<g clip-path="url(#clip1_275_1483)">
<path d="M93.328 31.5L93.32 30.34L95.928 27.388H93.384V26.004H98.056V27.164L95.464 30.116H98.096V31.5H93.328ZM99.0704 31.5V26.004H100.622V31.5H99.0704ZM103.321 30.116H105.881V31.5H101.769V26.004H103.321V30.116ZM106.734 31.5V26.004H108.286V31.5H106.734ZM112.217 31.596C110.593 31.596 109.225 30.292 109.225 28.748C109.225 27.204 110.593 25.908 112.217 25.908C113.097 25.908 113.897 26.284 114.449 26.876L113.305 27.876C113.049 27.54 112.649 27.316 112.217 27.316C111.465 27.316 110.825 27.972 110.825 28.748C110.825 29.532 111.465 30.188 112.217 30.188C112.657 30.188 113.049 29.964 113.313 29.628L114.449 30.62C113.897 31.22 113.097 31.596 112.217 31.596ZM117.908 31.596C116.284 31.596 114.916 30.292 114.916 28.748C114.916 27.204 116.284 25.908 117.908 25.908C119.532 25.908 120.9 27.204 120.9 28.748C120.9 30.292 119.532 31.596 117.908 31.596ZM117.908 30.188C118.66 30.188 119.3 29.532 119.3 28.748C119.3 27.972 118.66 27.316 117.908 27.316C117.156 27.316 116.516 27.972 116.516 28.748C116.516 29.532 117.156 30.188 117.908 30.188ZM121.807 31.5V26.004H123.359L125.503 28.948V26.004H127.055V31.5H125.503L123.359 28.556V31.5H121.807Z" fill="#172139"/>
</g>
</g>
<defs>
<clipPath id="clip0_275_1483">
<rect width="128" height="32" fill="white"/>
</clipPath>
<clipPath id="clip1_275_1483">
<rect width="84" height="6" fill="white" transform="translate(44 26)"/>
</clipPath>
</defs>
</svg>
